PathFileType	4	(X/Y/Z)	s01c0202.trc
DataRate	CameraRate	NumFrames	NumMarkers	Units	OrigDataRate	OrigDataStartFrame	OrigNumFrames
200	200	4	48	mm	200	1250	2000
Frame#	Time	racr			lacr			c7			jug			rlel			rdr			llel			ldr			s2			lic			ric			lasi			rasi			rpsi			lpsi			rgt			lgt			rth1			rth2			rth3			rth4			rlfc			rsh1			rsh2			rsh3			rsh4			rlmal			rmmal			rcal			rtoe			rmt5			lth1			lth2			lth4			lth3			llfc			lsh1			lsh2			lsh3			lsh4			llmal			lmmal			lcal			ltoe			lmt5			SBIKE			LBIKE			RBIKE			
		X1	Y1	Z1	X2	Y2	Z2	X3	Y3	Z3	X4	Y4	Z4	X5	Y5	Z5	X6	Y6	Z6	X7	Y7	Z7	X8	Y8	Z8	X9	Y9	Z9	X10	Y10	Z10	X11	Y11	Z11	X12	Y12	Z12	X13	Y13	Z13	X14	Y14	Z14	X15	Y15	Z15	X16	Y16	Z16	X17	Y17	Z17	X18	Y18	Z18	X19	Y19	Z19	X20	Y20	Z20	X21	Y21	Z21	X22	Y22	Z22	X23	Y23	Z23	X24	Y24	Z24	X25	Y25	Z25	X26	Y26	Z26	X27	Y27	Z27	X28	Y28	Z28	X29	Y29	Z29	X30	Y30	Z30	X31	Y31	Z31	X32	Y32	Z32	X33	Y33	Z33	X34	Y34	Z34	X35	Y35	Z35	X36	Y36	Z36	X37	Y37	Z37	X38	Y38	Z38	X39	Y39	Z39	X40	Y40	Z40	X41	Y41	Z41	X42	Y42	Z42	X43	Y43	Z43	X44	Y44	Z44	X45	Y45	Z45	X46	Y46	Z46	X47	Y47	Z47	X48	Y48	Z48	
1250	6.2500	530.853241	1246.655194	-92.734634	544.943490	1208.310716	-450.691326	517.175207	1346.720243	-279.852588	500.304319	1182.854858	-268.677592	464.383680	989.133886	29.881726	670.012547	884.952034	-58.523037	475.626642	964.115061	-589.633744	648.348772	867.267719	-445.452633	-12.144155	1144.613505	-268.981184	153.508744	1156.130714	-443.884686	134.716796	1157.183883	-108.197414	162.175363	1109.219717	-415.355162	164.236071	1112.896451	-135.751099	13.889481	1185.903280	-217.562005	13.891935	1185.050285	-322.904114	84.806903	1031.565225	-82.880519	117.259162	1035.304058	-463.645562	154.237198	918.133579	-60.793730	201.029852	850.126816	-65.077640	247.361160	772.849491	-74.871105	248.456399	879.194779	-75.498712	285.616293	663.270169	-93.332451	245.821905	552.732784	-60.994437	234.251773	468.662755	-65.953429	214.045442	382.684643	-77.464810	284.247124	461.270449	-99.392608	178.389958	261.944283	-100.384716	222.333190	273.491494	-174.063610	137.292629	242.402561	-152.641875	398.006480	172.674616	-141.781026	290.687624	157.608925	-71.113001	220.590348	973.100637	-459.300438	309.817828	967.344052	-461.258809	315.251521	1019.965071	-447.972492	392.992297	950.809934	-445.042175	482.746832	876.509088	-417.130354	385.029139	826.976064	-446.838258	320.906012	770.880024	-437.229657	254.976182	717.018233	-424.961293	358.897836	731.427442	-408.984020	161.623566	637.520044	-410.489808	188.429171	619.937317	-328.367682	117.344475	610.628425	-398.697761	287.607975	433.959199	-382.321262	196.325461	494.787470	-443.640320	-229.436344	890.942213	-254.916658	-22.785371	80.510790	-456.378530	-22.864797	80.191820	-56.184507	
1251	6.2550	532.709933	1246.992610	-95.236041	544.293518	1208.812892	-453.209689	517.854603	1347.148365	-281.986228	500.845548	1183.441376	-270.869308	464.982506	990.239138	29.425958	670.192046	885.153550	-58.761275	474.724459	963.934871	-590.539503	647.518081	867.162307	-446.488382	-12.477345	1145.894893	-268.049014	153.621132	1157.887744	-443.614821	136.055620	1157.731733	-108.446551	162.273473	1110.534041	-415.264195	164.694430	1113.508621	-135.726275	14.253263	1186.834911	-216.593296	14.112828	1185.950584	-321.852469	84.262300	1032.116720	-82.371467	117.152674	1037.032655	-463.505794	151.622689	918.485155	-59.560479	197.401541	849.687866	-63.588704	242.594560	771.751386	-72.966692	245.333559	878.121214	-73.666028	279.405102	661.722049	-91.186019	238.653020	551.303752	-59.344981	226.867629	467.286841	-64.544612	206.475288	381.318726	-76.312900	277.302565	459.800064	-97.189693	170.648680	261.062793	-99.286038	215.029520	272.006128	-172.771111	129.852829	242.891331	-151.957071	388.855023	167.030802	-141.848178	281.362861	154.340859	-70.968741	220.948287	975.968428	-459.098101	310.172987	971.729802	-461.356310	314.765503	1024.428207	-448.339284	393.677320	956.693673	-445.145847	486.496818	885.415548	-417.166864	388.256099	835.520450	-446.790936	325.318970	777.815064	-437.231724	260.685388	722.584946	-424.397621	364.113689	738.404650	-409.864759	168.084066	640.884840	-410.327168	195.085315	623.611045	-328.365331	123.901161	612.246178	-399.003960	298.114467	439.852331	-382.347022	205.673918	498.966355	-443.690481	-229.519379	890.957429	-254.901570	-22.792890	80.531884	-456.376207	-22.871922	80.211200	-56.177007	
1252	6.2600	534.555016	1247.180698	-97.728318	543.695122	1209.238976	-455.509714	518.517384	1347.587902	-284.204969	501.255722	1184.055665	-273.132924	465.703443	991.277740	28.904745	670.454580	885.209276	-59.147725	473.780852	963.831768	-591.491086	647.083789	867.482612	-447.281986	-12.303688	1146.828697	-267.253289	153.783874	1159.620977	-443.422910	137.208418	1158.563483	-108.594651	162.349144	1111.840017	-415.165139	165.102058	1114.127883	-135.647693	14.621376	1187.914653	-215.777628	14.315328	1186.942997	-320.910981	83.739297	1032.952660	-81.951809	117.135253	1038.887755	-463.453543	149.236171	919.210622	-58.348077	194.080307	849.760055	-62.122666	238.229097	771.179402	-70.938070	242.606953	877.487646	-71.683243	273.727890	660.725516	-89.103640	232.021957	550.602678	-57.761984	219.804433	466.680427	-63.165242	199.221601	380.915146	-75.128611	270.678729	458.917313	-95.099554	163.278075	260.946991	-98.708199	208.172178	271.372869	-171.472552	122.581858	244.224897	-151.369713	379.536946	161.834750	-141.884922	271.933029	151.829403	-70.788199	221.259175	978.726434	-458.906936	310.544140	975.772737	-461.169826	314.347369	1028.665048	-448.559480	394.407742	962.072932	-444.937578	487.921102	893.152122	-418.221522	391.593163	842.757671	-446.780303	329.571499	784.071147	-437.260047	265.916268	727.735092	-424.358425	369.184211	745.183095	-410.100433	174.603443	643.420105	-410.223751	201.639354	626.543747	-328.441401	126.922809	611.378322	-395.373827	308.774156	445.264065	-382.485622	215.405373	502.281079	-444.057789	-229.576469	890.961520	-254.901368	-22.810586	80.553451	-456.360016	-22.882859	80.248260	-56.162691	
1253	6.2650	536.394749	1247.226894	-100.199211	543.181996	1209.565636	-457.645787	519.228744	1347.837145	-286.278147	501.674309	1184.517400	-275.262013	466.507493	992.378228	28.494593	670.695488	885.337108	-59.472771	472.817793	963.718562	-592.426571	646.660354	867.819070	-448.018898	-12.139320	1148.132269	-266.665452	153.964572	1161.269638	-443.215504	137.686678	1160.155930	-107.607608	162.354594	1113.313610	-415.038414	165.403521	1114.893972	-135.479917	14.943451	1189.098523	-215.132054	14.439808	1188.195724	-320.172655	82.847596	1034.576160	-80.500999	117.178128	1040.826153	-463.593080	147.004855	920.128296	-57.292048	191.145305	850.236595	-60.631230	234.248891	771.258543	-68.837105	239.880603	877.546403	-69.713195	268.658049	660.357859	-87.004997	226.053197	550.692151	-56.307920	213.345242	466.898443	-61.822247	192.219275	381.222167	-74.081975	264.526062	458.579675	-93.133025	157.290613	260.513358	-99.711633	201.611972	271.505634	-170.245890	114.812093	247.444020	-149.580266	370.174333	157.194204	-141.868332	262.398840	149.892976	-70.630496	221.529213	981.378677	-458.734293	310.969490	979.612391	-461.046127	314.023306	1032.590203	-448.652866	395.081006	966.936067	-444.488076	489.572658	901.097608	-418.844977	394.535161	849.429355	-446.964600	333.633425	789.674803	-437.323692	271.055768	732.132671	-424.444061	374.119116	751.306479	-410.876689	181.073125	645.100125	-410.168369	208.050989	628.704747	-328.593239	132.062664	610.708256	-393.928152	319.501333	450.042793	-382.543368	225.021030	504.955834	-444.203955	-229.617650	890.967002	-254.909135	-22.816183	80.551456	-456.369366	-22.884156	80.258625	-56.177759	
